<svg xmlns="http://www.w3.org/2000/svg" viewBox="0 0 505.91 505.91"><defs><style>.cls-1{fill:#482b17;}.cls-2{fill:#5b412f;}.cls-3{fill:#55371e;}.cls-4{fill:#52351d;}.cls-5{fill:#452814;}.cls-6{fill:#4f321b;}.cls-7{fill:#513319;}.cls-8{fill:#4c2f19;}.cls-9{fill:#5a3b1d;}.cls-10{fill:#4a2c15;}.cls-11{fill:#52351e;}.cls-12{fill:#54361c;}.cls-13{fill:#5a3a1c;}.cls-14{fill:#583a21;}.cls-15{fill:#57371a;}.cls-16{fill:#482b18;}.cls-17{fill:#58391c;}.cls-18{fill:#5d3c1c;}.cls-19{fill:#4e321f;}.cls-20{fill:#4a2d19;}.cls-21{fill:#cda57a;}.cls-22{fill:#bf8d5a;}.cls-23{fill:#6e523d;}.cls-24{fill:#efac1e;}.cls-25{fill:#e59824;}.cls-26{fill:#543b2b;}.cls-27{fill:#bf8d59;}.cls-28{fill:#efac1d;}.cls-29{fill:#c18f5a;}.cls-30{fill:#d0a77b;}.cls-31{fill:#efcc9f;}.cls-32{fill:#5a402f;}.cls-33{fill:#573e2d;}.cls-34{fill:#553c2c;}.cls-35{fill:#553c2b;}.cls-36{fill:#efad1d;}.cls-37{fill:#e59924;}.cls-38{fill:#e89a24;}.cls-39{fill:#583f2d;}.cls-40{fill:#eeac1e;}.cls-41{fill:#f0ae1e;}.cls-42{fill:#c08e59;}.cls-43{fill:#f0ad1d;}.cls-44{fill:#eead1b;}.cls-45{fill:#c2905b;}.cls-46{fill:#c4915c;}.cls-47{fill:#e0c19e;}.cls-48{fill:#e69924;}.cls-49{fill:#cc975f;}.cls-50{fill:#c7ab96;}.cls-51{fill:#c18f5b;}.cls-52{fill:#573e30;}.cls-53{fill:#e99c28;}.cls-54{fill:#533b30;}.cls-55{fill:#563d30;}.cls-56{fill:#eec99e;}.cls-57{fill:#e4c29d;}.cls-58{fill:#db9122;}.cls-59{fill:#ea9c24;}.cls-60{fill:#c9965f;}.cls-61{fill:#624732;}.cls-62{fill:#5a412f;}.cls-63{fill:#c3905b;}.cls-64{fill:#eac89c;}.cls-65{fill:#caae96;}.cls-66{fill:#5e4330;}.cls-67{fill:#dcb283;}.cls-68{fill:#f7b81d;}.cls-69{fill:#4e3627;}.cls-70{fill:#4c3631;}.cls-71{fill:#f5a62e;}.cls-72{fill:#4f382a;}.cls-73{fill:#cb975f;}.cls-74{fill:#4e3729;}.cls-75{fill:#4a3530;}.cls-76{fill:#966e49;}.cls-77{fill:#e49825;}.cls-78{fill:#b58556;}.cls-79{fill:#5d4330;}.cls-80{fill:#fdbb1c;}.cls-81{fill:#4a342e;}.cls-82{fill:#352930;}.cls-83{fill:#8d612d;}.cls-84{fill:#e8cbae;}.cls-85{fill:#e7cbac;}.cls-86{fill:#e1bf9d;}.cls-87{fill:#d0a87c;}.cls-88{fill:#e4c7a7;}.cls-89{fill:#bf8e5a;}.cls-90{fill:#c08f5c;}.cls-91{fill:#d1a87a;}.cls-92{fill:#be8c57;}.cls-93{fill:#e0bf9c;}.cls-94{fill:#e0bf9d;}.cls-95{fill:#e6caac;}.cls-96{fill:#e8cbaf;}.cls-97{fill:#d6ad7f;}.cls-98{fill:#cda579;}.cls-99{fill:#cda67a;}.cls-100{fill:#ca965e;}.cls-101{fill:#efcda2;}.cls-102{fill:#efab18;}.cls-103{fill:#efa90d;}.cls-104{fill:#90735d;}.cls-105{fill:#f1af1e;}.cls-106{fill:#fdb81c;}.cls-107{fill:#eccaa0;}</style></defs><g id="Layer_2" data-name="Layer 2"><g id="Layer_1-2" data-name="Layer 1"><rect class="cls-1" width="505.91" height="505.91" rx="67"/><path class="cls-2" d="M121.25,384.85a1.6,1.6,0,0,1-.16.19h0l-.24-.19Z"/><path class="cls-2" d="M209.5,90.14h-.33a3.84,3.84,0,0,1-.22-.39C209.13,89.57,209.32,89.71,209.5,90.14Z"/><path class="cls-2" d="M217.57,75.19c-.31-.17-.47-.35-.47-.51l.46-.08C217.56,74.79,217.56,75,217.57,75.19Z"/><path class="cls-2" d="M285.35,287.83c-12.18,6-25.08,10.27-38.05,14.18-17.92,5.4-36,9.94-54.65,12.34-3.63.46-7.23.45-12.51.67a47.93,47.93,0,0,1-8-.66c-6.86-1.49-8.22-6.19-3.11-11,8.86-8.38,19.5-14.08,30.58-18.8,14.92-6.36,30.07-12.16,45.09-18.29,10.05-4.09,19.61-4.18,28.74,2.51,4,2.93,8.4,5.29,12.5,8.09C291.78,280.86,291.7,284.69,285.35,287.83Z"/><path class="cls-2" d="M302.29,305.8c-.08,1.91.49,3.94-1,5.59l-6.92-5.56-8.61-6.89,18.61-8.24c.35,4.53-.73,8.28-1.71,12.05C302.52,303.76,302.41,304.78,302.29,305.8Z"/><path class="cls-2" d="M351.92,307.18h0Z"/><path class="cls-2" d="M350.75,285.09a1.21,1.21,0,0,1,0,.19l0,0A1.6,1.6,0,0,1,350.75,285.09Z"/><path class="cls-2" d="M351.71,284.76a9.93,9.93,0,0,0-1,1.6l0-1.08Z"/><path class="cls-2" d="M358.44,307.64l-.22,0c-.41,0-.81-.09-1.22-.15a6.58,6.58,0,0,0,1,.06Z"/><path class="cls-2" d="M360.9,306.75a6.08,6.08,0,0,1-1.74.69A9.56,9.56,0,0,0,360.9,306.75Z"/><path class="cls-2" d="M370.4,197.38a2.82,2.82,0,0,0-.09.64l-.05,0c0-.12,0-.23.07-.35S370.38,197.49,370.4,197.38Z"/><path class="cls-2" d="M384.9,244.82c-10.2,5.14-20.69,9.7-31.09,14.45-2.59,1.19-4.82.42-6.63-1.71-3,.23-1.93-2.27-2.45-3.7a327.43,327.43,0,0,0-10.19,48.9c-.14,1.05.89,2.75-1.2,3.14l-4-3.51a3.09,3.09,0,0,1-.59.18q-2.25-1.85-4.48-3.71c-12.39-10.95-26.2-19.93-40.1-28.77-4.14-2.35-8.39-4.52-12.4-7.07-5.16-3.29-5-5.16.08-8.62,24.79-17,52.3-27.36,81.57-33.44,1.52.62,2.24,1.94,2.91,3.31,5.13-6.65,12.75-8.09,20.27-8.93,6-.66,11.22,5.07,13.5,13.41C392,235.7,390.34,242.08,384.9,244.82Z"/><path class="cls-2" d="M393.08,310a5.5,5.5,0,0,1-.91,0l.57-.09Z"/><path class="cls-2" d="M225.65,87.83a1.61,1.61,0,0,1-.12-.89c.1-.42.53-.57,1.25-.49,1.12.57,3.55-.49,2.87,2.32C228.14,89.21,226.91,88.45,225.65,87.83Z"/><path class="cls-2" d="M405.09,358.82c-2.73,9-8.41,15.11-17.56,18-6.94,2.19-14.18,2.78-21.21,4.43l-3.07.28-4.68-.19-12.49,1a27.37,27.37,0,0,1-8.66.41l-1,.8-2.93.1q.84-.12,1.68-.3a40.37,40.37,0,0,0-9.06.08c-.74.15-1.48.27-2.23.36l2.56.1c-.49.12-1,.23-1.46.33h-.11a9.9,9.9,0,0,1-2.48.17,6.4,6.4,0,0,1-1.61-.28c-7.06.52-14.19-.28-21.22.68l-77-.13-17.65-1c-5.9,0-11.82.49-17.65-.93l-7.65-.24c-3,.08-6,.21-8.93-.72l-.56-.19a31.23,31.23,0,0,1-11-1.38c-3.35-.74-6.71-1.47-10-2.23-15.14-3.48-25.46-11.33-27.28-28.09-.86-7.92-3.34-15.67-5.08-23.49a109.2,109.2,0,0,1-3.66-20.29,66.53,66.53,0,0,1-2-16.44,99.39,99.39,0,0,1,0-27.4c1.11-19.89,5.73-39,12.74-57.59,2-5.36,3.51-5.34,10-.75,1.57-2.29,4.81,2.46,6-1.42l-6-4.29c-4.36-.31-6.65-2.72-7.07-7,2.25-2.66,5.47-.73,8.09-1.72a.91.91,0,0,1,.05-.65,4.36,4.36,0,0,1-.87-.13h-7.25l4.78-2c-2.7-.59-5.65.43-8.18-1.29-3.55-4.36-4.16-9.83-5.62-15-1.26-2-1.48-3.82.38-5.39.12-.11.24-.2.37-.3,1.21,1.77,3.53,1.29,5,2.48l2.07-1.25,0-1.29h0c-8.51-3.73-8.58-3.75-5.42-13.25.64-1.92.27-4.81,3.44-5.17-2.57-4.42-1.08-9,3.6-11,2.24-.71,1.66-5.94,5.8-3.62a2.45,2.45,0,0,0,2.42-1.64c-1.81-1.69-1.5-3.13.37-4.62,2.35-1.87,4.5-4,7.37-5.13l6.92-3.53c.23.31.47.61.71.92l-4.43,4.65a86,86,0,0,0-4.11,8.13c-1,2.45-2.32,2.7-4.4,1.75-.18.52-.37,1-.56,1.56.91.27,2.11-.45,2.72.8l-2.59.42c4.62,2.83,2.16,7.22,1.75,10.67-.36,3.13-4.05,1.45-6.25,2,0,1.14,0,2.28.08,3.42,7.93-.18,9.12,1.1,8.51,9.1,1.11-.14,1.48-2.39,2.42-1.57,1.38,1.19.38,2.66-.8,3.73,3.48,2.46,5.51,6.17,8.14,9.36,1-.41,2.15-.8,2.95.14s-.49,1.48-.8,2.21c4.64,1,7.67,4.54,11.34,7.07l3.5-2.49c-1.72-3.22-4.91-4.78-7.81-6.47-4.54-2.65-6.14-6.69-4.45-11.13,5.25-13.83,15.39-23.22,28.6-29.51-.66,2.24-1.32,4.49-2.12,7.19,5.95-2.26,9-7.28,13.38-10.64,1.15,1.53,1.53,3.77,4.62,2.4,10.33-4.57,21.4-6.71,32.39-9.05l-2.74-.3c2.71-1.23,5.77-1.36,8.15-3.26,0-1.94-.25-3.94.94-5.68l1.53-2a0,0,0,0,0,0,0,2.76,2.76,0,0,0,1.25-2.37c-4.51-.53-3.91-4.61-4.49-7.31-.51-2.39,2.53-2,4.12-2.64.17-.81.34-1.62.5-2.43l-1.61-.2c-5.46,3.83-7.18-1.52-10-4.1,1.41-1.39,3.4-1.07,5.06-1.73l3.94,2c.8,1.49,5.37.33,2.89,4.12L244.79,98c4.69,0,6.62,3.32,8.31,6.92-1.65,1.48-3.73,1-5.66,1.21-.07.32-.14.64-.22,1l.18,0c7.42-1.38,9.94,3.24,11.34,9.24,0,.47.07.94.1,1.4,7.83,1.14,15.67,2.21,23.48,3.46,2.79.44,5.82.8,8.2,2.15s-.44.93-.89,1.34l5.85,2.23c20,5.19,37.21,15.43,52.85,28.63A65.28,65.28,0,0,1,361,168.05l2,2.48c2.84,2.72,2.26,4.77-1.26,6.16-1.71.67-3.47,1.22-5.21,1.83l-4.85,2-11.72,5.72,3.76,2.43,3.56-.86a60.07,60.07,0,0,1,13-4.33c.91-.22,2.19-.38,2.27.85.05.68-1,1.44-1.53,2.17-8.42,8.41-18.5,14.66-28.05,21.59-45.52,33-94.87,58.89-147.3,79.05-5.51,2.12-10.87,4.64-16.29,7-3.24,1.68-6.21,4.11-10.22,3.57-1.44-1.52-2.77-1.46-4.2.1-1,1.07-2,2.33-3.8,1.25a80.3,80.3,0,0,0-14,14.22c-4.28,5.51-3.59,8.87,2.52,12.46s12.79,5,19.54,6.23c7.31,1.35,14.68,2.32,22,3.45l14.22.27,27.25.06h5.2c-.63-2.07-1.91-1.43-2.9-1.53h0c-2.76.06-5.58.73-8.2-.67a1.91,1.91,0,0,1-.28-.15l-5.39-.33c-2.84.06-5.75.79-8.42-.83l-3.5-.79a7.67,7.67,0,0,1-1.56-.36h0l-4.16-.22a17.37,17.37,0,0,1-6.5-.67l-.06,0-.62-.25c-7.17-.18-14.3-.48-20.54-5.29,6.74-2,13.6-1.82,20.44-1.8h0l.57-.15c4.08-1.08,8.27-.8,12.44-.79l6.48-.24c.26-.27.5-.55.74-.84l-8.44-.37c0-.31,0-.63,0-.94h12.75a16.43,16.43,0,0,1,3.77-1.08c28.78-1.32,57.6-1.93,86.38-1,24.15.76,48.25,2.89,72.36,4.46A18.84,18.84,0,0,1,377,323c2.72,0,5.44.08,8.16.15.12,0,.35.29.35.33-.18.26-.41.5-.62.75a6.8,6.8,0,0,1,.19,1c-.68,2.09-2.35.7-3.53,1l-9.87.3c-.28.08-.55.16-.83.22a.31.31,0,0,1-.13,0c-3.58.87-7.23.69-10.87.63l-3.52.11-4.24.22-7.26,1.09c-2.63,1.62-5.53.86-8.34.91-1.86-.08-3.74-.18-5.6,1.72,4.21,1.6,8.29,1,12.34.85l20.53,0,14.42-.2h0a1.22,1.22,0,0,1,.9-.05c8.12-.92,16.25-1.79,24.36-2.8,2.46-.31,3,1,3.12,2.94C407.17,341.11,407.74,350.07,405.09,358.82Z"/><path class="cls-2" d="M408.74,336.62v11.63h-.52V336.63Z"/><path class="cls-3" d="M351.92,307.18h0Z"/><path class="cls-3" d="M360.9,306.75a6.08,6.08,0,0,1-1.74.69A9.56,9.56,0,0,0,360.9,306.75Z"/><path class="cls-4" d="M327.61,400.85l-9.85.28-18.54-.22a19.11,19.11,0,0,1-3.94-.21C306.06,400.66,316.83,400.67,327.61,400.85Z"/><path class="cls-2" d="M204.05,112.19a.69.69,0,0,1-.24,0V112A1.5,1.5,0,0,1,204.05,112.19Z"/><path class="cls-5" d="M217.56,74.6c0,.19,0,.39,0,.59-.31-.17-.47-.35-.47-.51a.27.27,0,0,1,0-.19c.14-.24.28-.35.43-.35C217.56,74.29,217.56,74.44,217.56,74.6Z"/><path class="cls-6" d="M370.4,197.38a2.82,2.82,0,0,0-.09.64l-.05,0c0-.12,0-.23.07-.35S370.38,197.49,370.4,197.38Z"/><path class="cls-7" d="M209.5,90.14h-.81a1,1,0,0,1,.26-.4C209.13,89.57,209.32,89.71,209.5,90.14Z"/><path class="cls-7" d="M218,98.91c-.15.24-.29.36-.43.36l.15-1.22C218.06,98.37,218.16,98.65,218,98.91Z"/><path class="cls-8" d="M121.25,384.85a1.6,1.6,0,0,1-.16.19.5.5,0,0,1-.68.1h0a1.56,1.56,0,0,1-.28-.29h1.13Z"/><path class="cls-9" d="M158,128h0Z"/><path class="cls-10" d="M209.5,90.14h-.81a1,1,0,0,1,.26-.4C209.13,89.57,209.32,89.71,209.5,90.14Z"/><path class="cls-2" d="M421.6,331c-.1.29-.19.57-.28.86a47.16,47.16,0,0,0-.53-5.17c0-.16-.05-.32-.09-.48-.11-.65-.24-1.28-.4-1.9a24.27,24.27,0,0,0-1.89-5.18,3.88,3.88,0,0,0-1.36-3.13,5.14,5.14,0,0,0-.28.5,16.09,16.09,0,0,0-3.61-3.57,16.57,16.57,0,0,0-2.69-1.59,20.08,20.08,0,0,0-5.07-1.6c-.83-.15-1.67-.26-2.51-.33l.39-.17-6.46-.29-1.31.08a3.68,3.68,0,0,0,.51-.37c-3.72-.24-7.43-.42-11.15-.54l.09-.05a188.41,188.41,0,0,0-23.62-1.46c-3.16.17-6.31.33-9.46.51l0,0c2,0,4.05.2,6.07.41l.45.05-.22,0a9.91,9.91,0,0,1-6.3-.5h0a4.58,4.58,0,0,1-2.44-3,11.45,11.45,0,0,1-.21-3.36c0-1.09,0-2.23,0-3.4,0,.1.09.21.13.31.09-.66.19-1.32.28-2l-.42-1.07a24.93,24.93,0,0,1,.49-5.36,5.45,5.45,0,0,0,.86,1.57c.05-1.49.09-3,.14-4.49l0-1.08,0,0a1.6,1.6,0,0,1,.05-.21,1.21,1.21,0,0,1,0,.19l1-.52a9.38,9.38,0,0,1,1.34-1.42,15.52,15.52,0,0,1,2.17-1.54,44.49,44.49,0,0,1,4.94-2.45,183.37,183.37,0,0,0,19.43-10.21c5.72-3.46,11.32-7.31,15.78-12.09,0,0,0,.08,0,.12a8.41,8.41,0,0,0,3.45-4.13h-.14a32.48,32.48,0,0,0,5.21-11.36q.31-1.33.51-2.67c0,.09.07.17.11.26a19.18,19.18,0,0,0-.07-11.47c-.11.25-.21.5-.3.76a38.51,38.51,0,0,0-1.78-6.42,12.17,12.17,0,0,0-4.69-9.44c0,.15.07.31.11.46-.26-.4-.53-.79-.8-1.18l-.48-.65.85.37a16.52,16.52,0,0,0-6.6-6.88,1.42,1.42,0,0,0,.05.22,24.11,24.11,0,0,0-5.25-3.46,13.35,13.35,0,0,0-4.2-1.14l.14-.05a18.31,18.31,0,0,0-10.25-.64,1.9,1.9,0,0,1-.53-.45,2,2,0,0,1-.39-1.27l-.05,0c0-.12,0-.23.07-.35s.05-.22.07-.33a2.82,2.82,0,0,0-.09.64c3.24-2.48,6.49-5,7.73-9.17a16.25,16.25,0,0,0,1.38-2.26c0,.29-.09.57-.14.86,4.21-5.51,4.5-11.31,1.26-17.37,0,.64,0,1.27,0,1.91a26.19,26.19,0,0,0-4.11-7.32,4.2,4.2,0,0,0,.61,0,11.75,11.75,0,0,0-3.52-4.44c.05.36.08.72.13,1.08-.46-.54-.92-1.08-1.39-1.61a11.07,11.07,0,0,0,1.18.45c-1.92-2.72-3.61-5.67-6.84-7.15a5.58,5.58,0,0,0,.18.58q-2.1-2.25-4.3-4.4c-1.31-3.41-4.11-5.3-7.34-6.71l0,0a155.72,155.72,0,0,0-51.68-29.2l0,0-1.68-.51c-2.64-.86-5.32-1.63-8-2.34-1-.92-2.38-.8-3.64-1a.52.52,0,0,1,0,.11c-2.09-.5-4.2-.94-6.31-1.34-4-.76-8.17-1.4-11.66-3.52-4.75-2.88-7.51-8-10.8-12.51l.76.32c-2.3-3.33-4.69-6.57-8.42-8.4A46,46,0,0,0,231,74.31l.27-.12c-4.56-.79-9.12-1.47-13.69,0,0,.15,0,.3,0,.46s0,.39,0,.59c-.31-.17-.47-.35-.47-.51a.27.27,0,0,1,0-.19c.14-.24.28-.35.43-.35a7.1,7.1,0,0,0-4.5,1.35l.29.22a9.74,9.74,0,0,0-4.14,2.75,7.75,7.75,0,0,0-1.6,3.22c-.05-.2-.09-.41-.14-.61-1.76,3.32-1,6.3,1.21,9.07a1,1,0,0,1,.26-.4c.18-.17.37,0,.55.4h-.81a26.93,26.93,0,0,0,8.88,9.13l.15-1.22c-.09-.1-.18-.21-.28-.31l.69.44-.41-.13c.34.32.44.6.28.86s-.29.36-.43.36a14.14,14.14,0,0,1,6.17,5.29,1.83,1.83,0,0,1-.07.32c-.5,1.53-2.22,2.22-3.74,2.72-3.88,1.29-7.77,2.58-11.73,3.61a4.46,4.46,0,0,0,.11-.46l-4.5,1.26a1.5,1.5,0,0,1,.24.18.69.69,0,0,1-.24,0V112c-6.09.88-12.34-.57-18.37,1.24-4.57-.8-8.81-.4-12.2,3.24L164.6,125c-2.77-.23-3.93,3-6.62,3h0l3.47-8c1.53-1.22,2.91-2.55,3.13-4.66a7.32,7.32,0,0,0,.06-6.75c-1.44-3.58-4.35-4.6-7.88-4.57h-5.71c-1.89-.84-6.48.63-8.41,1.12a37.09,37.09,0,0,0-7.95,3.08,44.51,44.51,0,0,0-7.24,4.83c-.59.47-1.16,1-1.71,1.43a22.11,22.11,0,0,0-7.85,8,2.85,2.85,0,0,0,.31-.12,70.09,70.09,0,0,0-5.16,7.58q.06-.47.09-.93a22.66,22.66,0,0,0-4.28,8.14l.47-.26c-5.1,10.69-8.23,23.13-7.53,35.09,0,.21,0,.43,0,.65a50.91,50.91,0,0,0,.91,6.86c.08.37.16.74.25,1.11,0,.21.09.41.14.62,1.31,5.38,4.49,11.54,3.66,17.21a24.92,24.92,0,0,1-2,6.22c.1-.38.18-.75.27-1.11-.41,1.69-2.81,4.18-3.68,5.85a33,33,0,0,0-2.49,6.22,163.08,163.08,0,0,0-3.74,17.53A245.42,245.42,0,0,0,91.66,268a259.62,259.62,0,0,0,4.81,56.46c1.68,8.81,4.17,17.39,5.85,26.15,1.6,8.4,3.78,16.9,8.55,24.12,7.46,11.3,20.38,18,33.55,21.15s26.64,3.47,40,3.92l-4.49.27a38.79,38.79,0,0,0,12.89.67l-1.91-.42q8.72.33,17.43.27c5.66,0,11.32.28,17,.28,6.2,0,12.42.09,18.64.1,13.85,0,27.7-.12,41.56-.21l9.76-.06c10.78,0,21.55,0,32.33.15,5.51.09,11,.3,16.48-.84a170.17,170.17,0,0,0,29.38-2.62l-.14-.08a25.14,25.14,0,0,0,7.53-1.27c4-1.52,8-2.4,12-3.88,3.59-1.34,9.2-3.35,11.71-6.4a23.11,23.11,0,0,0,8.93-8.94l-.28.13a22.59,22.59,0,0,0,1.83-2.42,37.58,37.58,0,0,0,5.08-13.66,100.59,100.59,0,0,0,1.18-16.1c.1.36.22.72.35,1.08A56.48,56.48,0,0,0,421.6,331Zm-49.52-137a9.45,9.45,0,0,0-.82,1.17A6.83,6.83,0,0,1,372.08,194.09Zm-1.51,2.71a.83.83,0,0,0-.06.21c0,.11-.07.22-.1.33A3.08,3.08,0,0,1,370.57,196.8Zm22.17,113.12.34.05a5.5,5.5,0,0,1-.91,0Zm-31.84-3.17a6.08,6.08,0,0,1-1.74.69A9.56,9.56,0,0,0,360.9,306.75Zm15.67-91.41c6-.66,11.22,5.07,13.5,13.41,1.9,6.95.27,13.33-5.17,16.07-10.2,5.14-20.69,9.7-31.09,14.45-2.59,1.19-4.82.42-6.63-1.71-3,.23-1.93-2.27-2.45-3.7a327.43,327.43,0,0,0-10.19,48.9c-.14,1.05.89,2.75-1.2,3.14l-4-3.51a3.09,3.09,0,0,1-.59.18q-2.25-1.85-4.48-3.71c-12.39-10.95-26.2-19.93-40.1-28.77-4.14-2.35-8.39-4.52-12.4-7.07-5.16-3.29-5-5.16.08-8.62,24.79-17,52.3-27.36,81.57-33.44,1.52.62,2.24,1.94,2.91,3.31C361.43,217.62,369.05,216.18,376.57,215.34Zm-75.3,96-6.92-5.56-8.61-6.89,18.61-8.24c.35,4.53-.73,8.28-1.71,12.05-.12,1-.23,2-.35,3.05C302.21,307.71,302.78,309.74,301.27,311.39Zm-15.92-23.56c-12.18,6-25.08,10.27-38.05,14.18-17.92,5.4-36,9.94-54.65,12.34-3.63.46-7.23.45-12.51.67a47.93,47.93,0,0,1-8-.66c-6.86-1.49-8.22-6.19-3.11-11,8.86-8.38,19.5-14.08,30.58-18.8,14.92-6.36,30.07-12.16,45.09-18.29,10.05-4.09,19.61-4.18,28.74,2.51,4,2.93,8.4,5.29,12.5,8.09C291.78,280.86,291.7,284.69,285.35,287.83Zm-59.7-200a1.61,1.61,0,0,1-.12-.89c.1-.42.53-.57,1.25-.49,1.12.57,3.55-.49,2.87,2.32C228.14,89.21,226.91,88.45,225.65,87.83Zm179.44,271c-2.73,9-8.41,15.11-17.56,18-6.94,2.19-14.18,2.78-21.21,4.43l-3.07.28-4.68-.19-12.49,1a27.37,27.37,0,0,1-8.66.41l-1,.8-2.93.1q.84-.12,1.68-.3a40.37,40.37,0,0,0-9.06.08c-.74.15-1.48.27-2.23.36l2.56.1c-.49.12-1,.23-1.46.33h-.11a9.9,9.9,0,0,1-2.48.17,6.4,6.4,0,0,1-1.61-.28c-7.06.52-14.19-.28-21.22.68l-77-.13-17.65-1c-5.9,0-11.82.49-17.65-.93l-7.65-.24c-3,.08-6,.21-8.93-.72l-.56-.19a31.23,31.23,0,0,1-11-1.38c-3.35-.74-6.71-1.47-10-2.23-15.14-3.48-25.46-11.33-27.28-28.09-.86-7.92-3.34-15.67-5.08-23.49a109.2,109.2,0,0,1-3.66-20.29,66.53,66.53,0,0,1-2-16.44,99.39,99.39,0,0,1,0-27.4c1.11-19.89,5.73-39,12.74-57.59,2-5.36,3.51-5.34,10-.75,1.57-2.29,4.81,2.46,6-1.42l-6-4.29c-4.36-.31-6.65-2.72-7.07-7,2.25-2.66,5.47-.73,8.09-1.72a.91.91,0,0,1,.05-.65,4.36,4.36,0,0,1-.87-.13h-7.25l4.78-2c-2.7-.59-5.65.43-8.18-1.29-3.55-4.36-4.16-9.83-5.62-15-1.26-2-1.48-3.82.38-5.39.12-.11.24-.2.37-.3,1.21,1.77,3.53,1.29,5,2.48l2.07-1.25,0-1.29h0c-8.51-3.73-8.58-3.75-5.42-13.25.64-1.92.27-4.81,3.44-5.17-2.57-4.42-1.08-9,3.6-11,2.24-.71,1.66-5.94,5.8-3.62a2.45,2.45,0,0,0,2.42-1.64c-1.81-1.69-1.5-3.13.37-4.62,2.35-1.87,4.5-4,7.37-5.13l6.92-3.53c.23.31.47.61.71.92l-4.43,4.65a86,86,0,0,0-4.11,8.13c-1,2.45-2.32,2.7-4.4,1.75-.18.52-.37,1-.56,1.56.91.27,2.11-.45,2.72.8l-2.59.42c4.62,2.83,2.16,7.22,1.75,10.67-.36,3.13-4.05,1.45-6.25,2,0,1.14,0,2.28.08,3.42,7.93-.18,9.12,1.1,8.51,9.1,1.11-.14,1.48-2.39,2.42-1.57,1.38,1.19.38,2.66-.8,3.73,3.48,2.46,5.51,6.17,8.14,9.36,1-.41,2.15-.8,2.95.14s-.49,1.48-.8,2.21c4.64,1,7.67,4.54,11.34,7.07l3.5-2.49c-1.72-3.22-4.91-4.78-7.81-6.47-4.54-2.65-6.14-6.69-4.45-11.13,5.25-13.83,15.39-23.22,28.6-29.51-.66,2.24-1.32,4.49-2.12,7.19,5.95-2.26,9-7.28,13.38-10.64,1.15,1.53,1.53,3.77,4.62,2.4,10.33-4.57,21.4-6.71,32.39-9.05l-2.74-.3c2.71-1.23,5.77-1.36,8.15-3.26,0-1.94-.25-3.94.94-5.68l1.53-2a0,0,0,0,0,0,0,2.76,2.76,0,0,0,1.25-2.37c-4.51-.53-3.91-4.61-4.49-7.31-.51-2.39,2.53-2,4.12-2.64.17-.81.34-1.62.5-2.43l-1.61-.2c-5.46,3.83-7.18-1.52-10-4.1,1.41-1.39,3.4-1.07,5.06-1.73l3.94,2c.8,1.49,5.37.33,2.89,4.12L244.79,98c4.69,0,6.62,3.32,8.31,6.92-1.65,1.48-3.73,1-5.66,1.21-.07.32-.14.64-.22,1l.18,0c7.42-1.38,9.94,3.24,11.34,9.24,0,.47.07.94.1,1.4,7.83,1.14,15.67,2.21,23.48,3.46,2.79.44,5.82.8,8.2,2.15s-.44.93-.89,1.34l5.85,2.23c20,5.19,37.21,15.43,52.85,28.63A65.28,65.28,0,0,1,361,168.05l2,2.48c2.84,2.72,2.26,4.77-1.26,6.16-1.71.67-3.47,1.22-5.21,1.83l-4.85,2-11.72,5.72,3.76,2.43,3.56-.86a60.07,60.07,0,0,1,13-4.33c.91-.22,2.19-.38,2.27.85.05.68-1,1.44-1.53,2.17-8.42,8.41-18.5,14.66-28.05,21.59-45.52,33-94.87,58.89-147.3,79.05-5.51,2.12-10.87,4.64-16.29,7-3.24,1.68-6.21,4.11-10.22,3.57-1.44-1.52-2.77-1.46-4.2.1-1,1.07-2,2.33-3.8,1.25a80.3,80.3,0,0,0-14,14.22c-4.28,5.51-3.59,8.87,2.52,12.46s12.79,5,19.54,6.23c7.31,1.35,14.68,2.32,22,3.45l14.22.27,27.25.06h5.2c-.63-2.07-1.91-1.43-2.9-1.53h0c-2.76.06-5.58.73-8.2-.67a1.91,1.91,0,0,1-.28-.15l-5.39-.33c-2.84.06-5.75.79-8.42-.83l-3.5-.79a7.67,7.67,0,0,1-1.56-.36h0l-4.16-.22a17.37,17.37,0,0,1-6.5-.67l-.06,0a4.73,4.73,0,0,1-.62-.25c-7.17-.18-14.3-.48-20.54-5.29,6.74-2,13.6-1.82,20.44-1.8h0l.57-.15c4.08-1.08,8.27-.8,12.44-.79l6.48-.24c.26-.27.5-.55.74-.84l-8.44-.37c0-.31,0-.63,0-.94h12.75a16.43,16.43,0,0,1,3.77-1.08c28.78-1.32,57.6-1.93,86.38-1,24.15.76,48.25,2.89,72.36,4.46A18.84,18.84,0,0,1,377,323c2.72,0,5.44.08,8.16.15.12,0,.35.29.35.33-.18.26-.41.5-.62.75a6.8,6.8,0,0,1,.19,1c-.68,2.09-2.35.7-3.53,1l-9.87.3c-.28.08-.55.16-.83.22a.31.31,0,0,1-.13,0c-3.58.87-7.23.69-10.87.63l-3.52.11-4.24.22-7.26,1.09c-2.63,1.62-5.53.86-8.34.91-1.86-.08-3.74-.18-5.6,1.72,4.21,1.6,8.29,1,12.34.85l20.53,0,14.42-.2h0a1.22,1.22,0,0,1,.9-.05c8.12-.92,16.25-1.79,24.36-2.8,2.46-.31,3,1,3.12,2.94C407.17,341.11,407.74,350.07,405.09,358.82Zm3.65-10.57h-.52V336.63h.52Z"/><path class="cls-11" d="M218,98.91c-.15.24-.29.36-.43.36l.15-1.22C218.06,98.37,218.16,98.65,218,98.91Z"/><path class="cls-12" d="M158,128h0Z"/><path class="cls-13" d="M121.25,384.85a1.6,1.6,0,0,1-.16.19.5.5,0,0,1-.68.1h0a3.83,3.83,0,0,1-.28-.29h1.13Z"/><path class="cls-14" d="M350.75,285.09a1.21,1.21,0,0,1,0,.19l0,0A1.6,1.6,0,0,1,350.75,285.09Z"/><path class="cls-14" d="M355.25,281.81a8.79,8.79,0,0,1-3.54,2.95,9.38,9.38,0,0,1,1.34-1.42,15.52,15.52,0,0,1,2.17-1.54Z"/><path class="cls-2" d="M204.05,112.19a.69.69,0,0,1-.24,0V112A1.5,1.5,0,0,1,204.05,112.19Z"/><path class="cls-15" d="M413.68,312.67a4.05,4.05,0,0,1-.52.3,16.57,16.57,0,0,0-2.69-1.59A3.78,3.78,0,0,1,413.68,312.67Z"/><path class="cls-16" d="M217.56,74.6c0,.19,0,.39,0,.59-.31-.17-.47-.35-.47-.51a.27.27,0,0,1,0-.19c.14-.24.28-.35.43-.35C217.56,74.29,217.56,74.44,217.56,74.6Z"/><path class="cls-17" d="M350.75,285.09a1.21,1.21,0,0,1,0,.19l0,0A1.6,1.6,0,0,1,350.75,285.09Z"/><path class="cls-18" d="M103,180.6l-.12.17a1,1,0,0,1-.18-.87c0-.14,0-.27,0-.41C102.83,179.86,102.91,180.23,103,180.6Z"/><path class="cls-19" d="M101.84,172.63l0,.07V172C101.8,172.19,101.81,172.41,101.84,172.63Z"/><path class="cls-20" d="M420.77,326.07l-.07.18c-.11-.65-.24-1.28-.4-1.9l.12-.2C420.54,324.79,420.65,325.43,420.77,326.07Z"/><path class="cls-21" d="M352.72,165.67A62.32,62.32,0,0,0,341.29,153c-13.7-11.48-29.33-19.57-45.81-26.16l-5.85-2.23c-6-3.33-12.85-3-19.27-4.56a18.29,18.29,0,0,0-3,0h0c-.28,0-.57.06-.85.1l-4.2.28h0l-.69,0h0a90.92,90.92,0,0,1-16.08-.32h0l-.11,0h0s0,0,0,0c-1-.12-1.92-.26-2.88-.43a8.5,8.5,0,0,0-2.71-.08,7.54,7.54,0,0,1-1.42.53l-.08,0-.18,0-.51.13-.09,0a10.75,10.75,0,0,0-2.23.71A3.61,3.61,0,0,0,233.4,123c-1.44,3.41-3.24,4-6.66,2.2s-6.77.26-9.78,1.74c-2.35,1.16-1.25,3.52-1,5.63.31,2.59-1.71,2.26-2.92,1.22-6.51-5.59-11.7-1.33-16.93,2.17-2.69,1.8-3.43,4.46-2.32,7.56.43,1.18,1.6,2.26.6,3.66a1.79,1.79,0,0,1-.57.15c-.86-.1-1.2-.86-1.74-1.37-3.68-3.46-5.58-3.24-9.2,0-3.18,2.84-1.4,7.34-3.4,9.84-2.13,2.68-6.91,2.53-8.58,6.73-2.2,5.51-3.5,10.47.13,16.21,6,9.47,6.78,18.5-1.36,28.25-9.22,11-14.31,24.29-13.12,39.23.74,9.21,4.49,16.23,13.26,20.45,4.21,2,8.32.71,12.41.77a13.78,13.78,0,0,1,2.22.2l.21,0a5.39,5.39,0,0,0,2.69-1.28l.11-.08,1.48-1.15c7.31-5.7,14.92-11,22.56-16.24,18.82-12.88,38.2-24.85,58-36.08-2.13,1.23-4.24,2.47-6.34,3.75a3,3,0,0,0-1.53,2.27l0,.28h0a3.28,3.28,0,0,0,.14.56h0a2.88,2.88,0,0,0,.88,1.32,3,3,0,0,0,.54.4h0a5.9,5.9,0,0,0,1.1.53,4.9,4.9,0,0,0,2.3-.15,8.11,8.11,0,0,0,2.38-1.21l.21-.15c4.28-5.3,10.08-7.38,16.61-8a39.09,39.09,0,0,1,4-1.74,27.21,27.21,0,0,0,3.34-1.53,11.74,11.74,0,0,0,2.1-1.51c1.59-3.85,5.24-2.69,8.14-3.37,2.48-1,4.95-2.08,7.4-3.16,4.21-1.85,8.4-3.77,12.59-5.68l0,0c3.23-1.48,6.46-2.95,9.72-4.37l2.27-1c.8-.35,1.71-.61,2.5-1a3.38,3.38,0,0,0,2-2.74l11.72-5.72C356.08,175.45,356.59,171.32,352.72,165.67Zm-33.21,21.59c-15.41,7.65-31,14.9-46,23.26,1.23-.7,2.45-1.38,3.68-2.06C291,200.81,305.3,194.14,319.51,187.26Z"/><path class="cls-22" d="M239.39,121.2c-1.12,1.35-3.58.59-4,3.36-1,5.62-5,7.35-8.94,3.59-2.78-2.63-4.76-1.21-7.15-.48-1.84.57-2.74,1.52-.78,3.13,2.22,1.83,3.32,3.95.73,6.19-2.39,2.08-5.39,1.89-7.19-.4-3.74-4.76-7.36-3.1-11.35-.69-3.74,2.25-7.72,4-2.84,9.15,1.93,2,1.6,4.79-1.2,6.27s-4.63,0-6.21-2.29c-.89-1.32-.39-4.8-3.27-3.32-2.18,1.11-4.62,2.93-4.51,6.11.07,1.89.46,3.78.4,5.67s-.94,3.69-3.07,3.26c-2.39-.48-4.62-2.06-6,1.55-1.63,4.37-4.64,8.46-1.82,13.48A66,66,0,0,1,177.32,186c2.5,7.1,1.66,13.63-3.45,19.75-8.22,9.83-13.84,21-14.78,34.06-1.07,14.71,4.77,27.77,25.34,25.84a2.79,2.79,0,0,1,.22,2c-.32,1.07-1.42,1.77-2.42,2.59s-2.26,1.84-3.4,2.75c-5,4-10.14,8-15.09,12.08-1.09.9-2.17,1.82-3.24,2.74l-.29.24c-1.52,1.31-2.89,2.52-2.67,4.58a4.74,4.74,0,0,0,.16.84c-1.83,2.31-3.36,5-6.58,5.65a80.3,80.3,0,0,0-14,14.22c-4.28,5.51-3.59,8.87,2.52,12.46s12.79,5,19.54,6.23c7.31,1.35,14.68,2.32,22,3.45a3.4,3.4,0,0,1-1.41,1.41h0c-1.31.64-2.92.3-4.38.45h-1c-.22,0-.45,0-.67,0,.32.1.65.18,1,.27,4.73,1.19,9.64,1.13,14.42,2,1.35.24,2.82-.09,4,.61a3.24,3.24,0,0,1,.71.55l.14.25a5.32,5.32,0,0,1,.3.65c.74,2-.42,3.61-1.89,5.11-4.06,4.14-4.48,8.69-2.43,14.08a52.94,52.94,0,0,0,9,15c1.31,1.57,2.75,3.05,1.91,5.09,0,.12-.11.24-.17.36s-.2.34-.32.52a12.93,12.93,0,0,1-3.21.85,23.79,23.79,0,0,1-5,.06c-1.21-.09-2.43-.22-3.63-.31-9.82-.74-19.63-1.71-29.47-2.17-3.35-.74-6.71-1.47-10-2.23-15.14-3.48-25.46-11.33-27.28-28.09-.86-7.92-3.34-15.67-5.08-23.49.26-6.81-2.55-13.16-2.94-19.88,0-.18.06-.41,0-.55-.36-.68-.43.25-.7.14a66.53,66.53,0,0,1-2-16.44c.09-9.13-.09-18.27,0-27.4,1.11-19.89,5.73-39,12.74-57.59,2-5.36,3.51-5.34,10-.75,6.44,1.88,12.73,4.67,19.72,2.39,10.08-3.29,15.24-10.49,14.76-21-.1-2.26-.56-4.52,0-6.78-1.72-3.22-4.91-4.78-7.81-6.47-4.54-2.65-6.14-6.69-4.45-11.13,5.25-13.83,15.39-23.22,28.6-29.51-.66,2.24-1.32,4.49-2.12,7.19,5.95-2.26,9-7.28,13.38-10.64,1.15,1.53,1.53,3.77,4.62,2.4,10.33-4.57,21.4-6.71,32.39-9.05.88-1,2.2-.88,3.34-1.21a5.79,5.79,0,0,1,1.92.12,0,0,0,0,1,0,0,1.76,1.76,0,0,1,.64.29A2.24,2.24,0,0,1,239.39,121.2Z"/><path class="cls-21" d="M405.09,358.82c-2.73,9-8.41,15.11-17.56,18-6.94,2.19-14.18,2.78-21.21,4.43l-3.07.28-4.68-.19c-3.77-1.27-7.52.41-11.28.18a6.34,6.34,0,0,1-.75-.07l-.16,0q-6.74.72-13.49,1.22h0q-6.36.48-12.74.79c-29.2,1.45-58.46.65-87.7.88-8.93.07-17.7-2.29-26.64-1.69a9.45,9.45,0,0,0-1.58.25l-.27.08-.12,0a3,3,0,0,1-1.75-.33l-.21-.13a3.67,3.67,0,0,1-1.1-1.32,8.25,8.25,0,0,1-.42-.9c-6.34-5.17-10.36-11.82-13.26-19.44-2.61-6.85-1.07-12.13,4.3-16.72a14.6,14.6,0,0,0,2-2.65A4.47,4.47,0,0,1,194,341a4.09,4.09,0,0,1,1.25-.6,8.3,8.3,0,0,1,3.73.17l.61.1a6.7,6.7,0,0,0,2.52.07l5.16.48c28.47,2.5,57,2.11,85.55,1.69a407.52,407.52,0,0,0,42-3c7.51-.89,15.05-1.75,22.59-2.49a12.78,12.78,0,0,0,5.82-1.9h.06a3.28,3.28,0,0,0,.44-.32,6.48,6.48,0,0,1,.67-.39,12.81,12.81,0,0,1,1.47-.77,2.27,2.27,0,0,1-2.92-.81V333c0-.51.3-.76.84-.77l14.42-.2h0c.82,1.26,1.65,2.5,3.37,2.27.73.43.63-.85.36-.13a2.85,2.85,0,0,1-1-.27,2.91,2.91,0,0,1-1.82-1.92c8.12-.92,16.25-1.79,24.36-2.8,2.46-.31,3,1,3.12,2.94C407.17,341.11,407.74,350.07,405.09,358.82Z"/><path class="cls-22" d="M361,186.52c-8.42,8.41-18.5,14.66-28.05,21.59-45.52,33-94.87,58.89-147.3,79.05-5.51,2.12-10.87,4.64-16.29,7-1.68-.17-2.46-.77-2.77-1.58a3.61,3.61,0,0,1-.16-1.69c.06-.76.23-1.57.32-2.34,5.07-6.17,11.91-10.29,17.94-15.36,4.7-3.95,9.77-7.48,13.85-12.12l.43-.48h0l.68-.84.09-.11c5.38-3.67,10.88-7.17,16.39-10.64,6.84-4.32,13.58-8.79,20.52-12.94l.13-.08c1.13-.69,2.28-1.36,3.43-2a8.61,8.61,0,0,0,1.91-1.57c.62-.64,1.2-1.32,1.86-1.91l.18-.15.23-.2a5.35,5.35,0,0,1,1.61-.53l.9-.17h0l.57-.12c1.18-.25,2.34-.54,3.48-.88h0a92.4,92.4,0,0,0,15.68-6.66l2.38-1.21c2.09-1.06,4.18-2.12,6.3-3.11q7.23-3.39,14.49-6.74l3.34-1.53q8.81-4.05,17.64-8l12.59-5.68,0,0,9.72-4.37,3.3-1.49a11,11,0,0,1,1.47-.55,12.86,12.86,0,0,1,5.76-.31l3.56-.86c3.25,0,6-1.71,9.08-2.47C358.07,184.92,360,183.92,361,186.52Z"/><path class="cls-23" d="M285.35,287.83c-12.18,6-25.08,10.27-38.05,14.18-17.92,5.4-36,9.94-54.65,12.34-3.63.46-7.23.45-12.51.67a47.93,47.93,0,0,1-8-.66c-6.86-1.49-8.22-6.19-3.11-11,8.86-8.38,19.5-14.08,30.58-18.8,14.92-6.36,30.07-12.16,45.09-18.29,10.05-4.09,19.61-4.18,28.74,2.51,4,2.93,8.4,5.29,12.5,8.09C291.78,280.86,291.7,284.69,285.35,287.83Z"/><path class="cls-22" d="M354,324.09h0v0a2.75,2.75,0,0,0-.69-.85l-.36-.11-.3-.1a13.57,13.57,0,0,0-3.12-.61h-.3l-.7,0h-.35c-1.36-.06-2.73,0-4.09,0h0a35.72,35.72,0,0,1-4.14-.06h-.1a14.78,14.78,0,0,1-1.74-.22H338l-1.16-.12h0l-.53-.05h-.05q-3-.3-6-.56h-.21l-.91-.08c-2.13-.18-4.26-.33-6.38-.48l-1.56-.1h0a.79.79,0,0,0-.22,0h-.08q-4.9-.31-9.83-.55h-.33a1,1,0,0,0-.25,0h0c-2.84-.15-5.68-.27-8.52-.38l-1.27-.05h0l-1.86-.07h-.07c-3.81-.15-7.62-.28-11.43-.42q-3-.12-5.94-.16H281l-2.68,0h-.26q-3.48,0-7,0c-5,.05-9.95.18-14.93.33h0l-11.3.35h-.1l-3.75.12-1.84.07h-.11q-3.12.1-6.24.28c-1.77.09-3.53.2-5.29.32h0l-1.09.08h-.08q-3.6.24-7.19.54c-2.93.24-5.87.49-8.8.75-12.15,1.06-24.29,2.15-36.5,2.36-1.27,0-2.74-.08-3.38,2.14,3.36,1.72,7.11,1.84,10.72,2.36,6.56,1,13.15,1.65,19.75,2.33h0l2.06.21c3.13.32,6.25.64,9.38,1,2,.22,3.92.44,5.88.69,1,.12,2.1.26,3.15.4l2.27.31a2.46,2.46,0,0,0,1.25.64h0c1,.1,2.27-.54,2.9,1.53h-5.2a1.43,1.43,0,0,0-.52.72,1.14,1.14,0,0,0,.4,1.11,4,4,0,0,0,1.64,1.07s0,0,0,0h0a10.71,10.71,0,0,0,3.68.33c2.2,0,4.39,0,6.59,0h.15c9.62.05,19.24.33,28.85.34,0,0,0,0,0,0h0s0,0,0,0,0,0,0,0h0s0,0,0,0h0s0,0,0,0,0,0,0,0,0,0,0,0,0,0,0,0,0,0,0,0,0,0,0,0,0,0,0,0,0,0,0,0,0,0,0,0h0s0,0,0,0,0,0,0,0h0s0,0,0,0,0,0,0,0,0,0,0,0,0,0,0,0,0,0,0,0,0,0,0,0,0,0,0,0,0,0,0,0,0,0,0,0,0,0,0,0,0,0,0,0,0,0,0,0h0a0,0,0,0,0,0,0,.06.06,0,0,0,.06,0,0,0,0,0,0,0,0,0,0,0,0,0,0,0,0,0,0,0,0,0,0s0,0,0,0,0,0,0,0,0,0,0,0h.19c2.95,0,5.89,0,8.84-.09l1.38,0c17-.34,34.06-1.45,51.09-2.27q4.23-.21,8.48-.38a15.92,15.92,0,0,0,4-.43h0c.31-.07.62-.16.92-.25h0a14.11,14.11,0,0,0,3.09-1.36q.51-.3,1-.63a1.11,1.11,0,0,0,.39-.85.19.19,0,0,0,0-.08,1.13,1.13,0,0,0-.63-.68c-4.05.18-8.13.75-12.34-.85,1.86-1.9,3.74-1.8,5.6-1.72.18-.08.36-.14.54-.2,2.54-.79,5.29.36,7.8-.71l7.26-1.09a2.49,2.49,0,0,0-1.21-.72,5.45,5.45,0,0,0,2.22-.43l.17-.08.19-.1A2,2,0,0,0,354,324.09Zm-4.79,2.85a6.35,6.35,0,0,1-2,.05A8,8,0,0,1,349.25,326.94Z"/><path class="cls-24" d="M348.76,243.21a14.69,14.69,0,0,1-4,10.65,327.43,327.43,0,0,0-10.19,48.9c-.14,1.05.89,2.75-1.2,3.14-.91-1.66-2-3.15-4-3.51a3.09,3.09,0,0,1-.59.18q-2.25-1.85-4.48-3.71c-12.39-10.95-26.2-19.93-40.1-28.77-1.59-3.4-4.11-6.57-3.34-10.62,1.1-5.81,4.8-9.39,10.4-10.94,2.19-.6,4.49-1.51,6.7-1.28,11.9,1.27,21.16-4.62,30.58-10.56,8.41-5.31,14-4.15,19.42,3.51.16.21.31.43.45.65s.2.28.3.43C348.71,241.93,348.75,242.58,348.76,243.21Z"/><path class="cls-25" d="M353.79,225.72a31.07,31.07,0,0,1-3.86,13,12.91,12.91,0,0,1-1.58,2.14,6.58,6.58,0,0,1-1.07,1c-8.41-7.23-10.16-7.86-18.92-1.7-9.74,6.84-20.23,9.43-31.95,10.4S283,255,284.56,266.76a12.88,12.88,0,0,1-.42,3.33c-4.14-2.35-8.39-4.52-12.4-7.07-5.16-3.29-5-5.16.08-8.62,24.79-17,52.3-27.36,81.57-33.44A15.06,15.06,0,0,1,353.79,225.72Z"/><path class="cls-23" d="M384.9,244.82c-10.2,5.14-20.69,9.7-31.09,14.45-2.59,1.19-4.82.42-6.63-1.71a5.64,5.64,0,0,1-1.24-5.15,8.46,8.46,0,0,1,.38-1.33c.95-2.58,1.73-5.22,2.44-7.87q.6-2.25,1.17-4.5c.91-3.54,1.84-7.08,3.06-10.52a20.3,20.3,0,0,1,.8-2.47,2.44,2.44,0,0,1,2.51-1.45c5.13-6.65,12.75-8.09,20.27-8.93,6-.66,11.22,5.07,13.5,13.41C392,235.7,390.34,242.08,384.9,244.82Z"/><path class="cls-26" d="M343.67,188.69q-46.31,21-92.63,41.9c-1.45.65-3,2.82-5,.61a21.52,21.52,0,0,1,1.4-1.92l.33-.4v0A23.4,23.4,0,0,1,260,221.59h0c.87-.24,1.75-.45,2.66-.62.59-.12,1.2-.23,1.81-.33l3.69-1.95c5.28-3.54,10.42-7.37,17-8.19l9.34-4.45c2.11-1.52,3.92-3.72,6.73-3.72h0a5.14,5.14,0,0,1,1.08.11l37.52-16.17Z"/><path class="cls-27" d="M360.09,176.41c-1.35.39-3.14.16-3.61,2.11l-4.85,2c3.51-8.26-.52-14.56-5.92-19.92a146.57,146.57,0,0,0-42.54-29.12c-2.75-1.25-5.8-2-7.69-4.62,20,5.19,37.21,15.43,52.85,28.63A67.91,67.91,0,0,0,361,168.05l2,2.48C364.22,173.57,363.28,175.49,360.09,176.41Z"/><path class="cls-28" d="M166.38,193.4a6.88,6.88,0,0,1-2.34,4.76,38,38,0,0,1-7.4,4.19l-.08,0a23.43,23.43,0,0,1-10.43,2h0a23.38,23.38,0,0,1-5.08-.83,3.76,3.76,0,0,1-1.29-1l-6-4.29a11.25,11.25,0,0,1-7.07-7c2.25-2.66,5.47-.73,8.09-1.72h0c2.78-.85,4,1.44,5.7,2.83,2.47,2.06,4.91,4.22,8.14,4.92,2.38.51,4.62-.07,5.88-2.35s-.2-3.85-1.94-5.24c-2.22-1.78-4.3-3.71-5-6.68l.12-.25.09-.2c.45-1,.78-2,1.14-3a11.58,11.58,0,0,1,2.11-3.95,6.3,6.3,0,0,1,2.25-1.62c4.64,1,7.67,4.54,11.34,7.07a2.57,2.57,0,0,1,.89,1.39c-.06.64-.1,1.27-.13,1.9,0,0,0,0,0,0a32.82,32.82,0,0,0,.23,5.52h0A26.49,26.49,0,0,0,166.38,193.4Z"/><path class="cls-29" d="M338.39,323a1.69,1.69,0,0,1-.41,1.14c-8.61-2.07-17.49-1.53-26.19-2-18.46-1-37-2.41-55.5-1.36-27.9,1.59-55.86,2.18-83.71,5.13,18.25,3.95,36.91,4.4,55.45,7l-3.95.56h0l-.38.13a13,13,0,0,1-5,.11l-.36-.18a4.37,4.37,0,0,0-.68-.27c-2.15-.77-4.43-.53-6.68-.54h-.39a50,50,0,0,1-5.61-.15,5.11,5.11,0,0,0-1-.48,6.56,6.56,0,0,0-.84-.23c-1.29-.27-2.63-.22-3.93-.39a7.67,7.67,0,0,1-1.56-.36h0l-4.16-.22c-2.06-1-4.38,0-6.5-.67l-.06,0-.62-.25c-7.17-.18-14.3-.48-20.54-5.29,6.74-2,13.6-1.82,20.44-1.8h0l.57-.15c4.1-.95,8.36.42,12.44-.79l6.48-.24a14.89,14.89,0,0,1,3.09-1,16.6,16.6,0,0,1,1.72-.26,1.46,1.46,0,0,1,.22,0c1.52-.17,3.06-.21,4.59-.29h0l1.23-.07h.11l.41,0h.08a23.46,23.46,0,0,0,2.65-.37c1.21-.09,2.39-.13,3.61-.13h0c1.5,0,3,0,4.52,0,3.91,0,7.81-.21,11.7-.54,0,0,0,0,0,0,1.88-.16,3.76-.34,5.64-.52s3.62-.1,5.42-.09h0c2,0,4.05,0,6.07,0h29.25c3.36,0,6.7,0,10.06.06l3.93.45h0a91.06,91.06,0,0,0,10.18.64c1.42,0,2.84,0,4.25,0h0c1.22,0,2.42,0,3.63.08,1.36.21,2.73.44,4.09.62a40,40,0,0,0,7.34.46c1.26,0,2.52,0,3.78,0h.07c.91,0,1.81,0,2.71.11a2.86,2.86,0,0,1,1.44.69,2,2,0,0,1,.24.26.65.65,0,0,1,.11.12c.05.07.11.14.16.22l.18.31a3.1,3.1,0,0,1,.09.39A1.37,1.37,0,0,1,338.39,323Z"/><path class="cls-30" d="M347.29,381.52a2.93,2.93,0,0,1-1.21.79,27.37,27.37,0,0,1-8.66.41,22.84,22.84,0,0,1-2.22.6,40.37,40.37,0,0,0-9.06.08c-.74.15-1.48.27-2.23.36l2.56.1c-.49.12-1,.23-1.46.33h-.11c-.83,0-1.66.09-2.48.17a6.4,6.4,0,0,1-1.61-.28c-7.06.52-14.19-.28-21.22.68l-77-.13-17.65-1c-.3-.27-.79-.34-1-.66a.82.82,0,0,1-.13-.47c2.26-1.5,4.81-1.15,7.25-1,31.47,2.38,63,1.22,94.46.66,13.83-.25,27.85.47,41.65-1.89C347.5,380.86,347.48,381.24,347.29,381.52Z"/><path class="cls-31" d="M157.91,195.31c-1.93,3.95-5.2,5.6-9.39,4.78-4.94-1-8.31-4.44-11.46-8.07l-2.27-2.58a.91.91,0,0,1,.05-.65c3.62-2.93,8.36-3.73,12.14-6.36a2.18,2.18,0,0,1,.51,0l.2,0,.15,0a2.45,2.45,0,0,1,.72.28c2.07,1.67,4.09,3.41,6.22,5C157.32,189.69,159.7,191.62,157.91,195.31Z"/><path class="cls-32" d="M165.16,201.79c-6.69,7.15-16.84,9.6-25.09,5.88a61.2,61.2,0,0,1-6.33-3.79c1.57-2.29,4.81,2.46,6-1.42.34,0,.67,0,1,0,8.49,3.06,15.51.18,21.86-5.41a5.63,5.63,0,0,0,2-3.73c-.21-3.77.58-7.55-.07-11.32a4.16,4.16,0,0,0,.14-1l3.5-2.49A20.08,20.08,0,0,1,165.16,201.79Z"/><path class="cls-33" d="M377.29,323.88s0,0,0,.06a.06.06,0,0,1,0,0c-.06.31-.13.47-.21.47a3.51,3.51,0,0,1-.4.27,3,3,0,0,1-1.14.4,6.13,6.13,0,0,1-1.71-.16c-2.92-.53-5.87-.19-8.8-.29-2.16,0-4.32.09-6.48-.16-.45-.17-.89-.32-1.34-.46a22.81,22.81,0,0,0-2.39-.64,5.78,5.78,0,0,0-.57-.12.76.76,0,0,0-.21,0c-.35-.07-.7-.13-1-.17q-.93-.13-1.89-.18a20.61,20.61,0,0,0-2.83,0c-2,0-4.06.06-6.08-.06h0l-.65-.05c-.51-.21-1-.39-1.54-.55a.07.07,0,0,0-.06,0c-.52-.17-1.05-.32-1.58-.44h-.06c-.14,0-.26-.08-.41-.11l-.54-.11a27.65,27.65,0,0,0-7.05-.39h-1.08c-2,0-4,.08-6-.1-.25-.07-.49-.13-.74-.18-.46-.11-.92-.21-1.39-.29h0l-.06,0h-.08a50.42,50.42,0,0,0-9.83-.55h-.66c-2.71-.08-5.42.18-8.12-.17l-.61-.11-1-.18h0l-.82-.12h0c-6.14-.87-12.3-.54-18.47-.53H281l-2.67,0h-22.1a111,111,0,0,0-14.93.57h0c-.72.08-1.45.18-2.17.3h-.07c-.26,0-.52.08-.78.12a52.4,52.4,0,0,1-5.46.16c-1.54,0-3.08,0-4.62,0h-.58a66.43,66.43,0,0,0-8.47.31c-.78.08-1.55.16-2.32.26h0l-2.11.29a7.73,7.73,0,0,1-3.73.16,1.65,1.65,0,0,1-.4-.39.15.15,0,0,0,0-.07,1.34,1.34,0,0,1-.07-.18,1.15,1.15,0,0,1,.23-.93,16.43,16.43,0,0,1,3.77-1.08c28.78-1.32,57.6-1.93,86.38-1,24.15.76,48.25,2.89,72.36,4.46A18.84,18.84,0,0,1,377,323,1.16,1.16,0,0,1,377.29,323.88Z"/><path class="cls-34" d="M201.51,260.93c-8.71,8.93-19.14,15.85-28.4,24.13-1.69,1.51-3.35,3-5,4.56a8.8,8.8,0,0,1-1.52,2.94c-1.86,2.41-4.74,3.69-7.45,5.15-1.44-1.52-2.77-1.46-4.2.1-1,1.07-2,2.33-3.8,1.25l5.78-6c-.5-2.77,1.67-3.8,3.31-5.1l.29-.24c1.07-.92,2.15-1.84,3.24-2.74q7.39-6.24,15.09-12.08,4.3-3.3,8.72-6.46c.68-.49,1.36-1,2-1.45q3.57-2.56,7.21-5a3.81,3.81,0,0,1,1.64-.49,3.18,3.18,0,0,1,.62.05,2.26,2.26,0,0,1,.58.16,1.8,1.8,0,0,1,.38.16A6.21,6.21,0,0,1,201.51,260.93Z"/><path class="cls-35" d="M326.47,383.86c-.49.12-1,.23-1.46.33h-.11a9.9,9.9,0,0,1-2.48.17,6.4,6.4,0,0,1-1.61-.28c1-.07,2-.18,3-.33h.06Z"/><path class="cls-35" d="M336.45,383.52l-2.93.1q.84-.12,1.68-.3C335.62,383.37,336,383.44,336.45,383.52Z"/><path class="cls-36" d="M151.09,175.53a9.92,9.92,0,0,1-2.11,3.95,16.55,16.55,0,0,1-1.65,1.71l-.47.42h0a3.91,3.91,0,0,1-1.83.13l-.42-.2c-.47-.21-.94-.44-1.4-.68a20.15,20.15,0,0,1-8.6-7.62c-1.13-1.94-1.73-3.84-1.05-6,0-.13.09-.26.14-.39l.06-.15.06-.06.18-.18a20.66,20.66,0,0,1,2.23-2,11.53,11.53,0,0,1,3.79-2,9.68,9.68,0,0,1,3.05-.36c3.48,2.46,5.51,6.17,8.14,9.36A8.91,8.91,0,0,1,151.09,175.53Z"/><path class="cls-37" d="M302.64,302.75c-1.36-.26-.78.89-.85,1.35-.58,3.68-1.66,5.92-5.34,2.25a2.06,2.06,0,0,0-1.39-.5l-.71,0-8.61-6.89,18.61-8.24C304.7,295.23,303.62,299,302.64,302.75Z"/><path class="cls-38" d="M258.74,116.3a4.59,4.59,0,0,1-1.28,1.19l-.35.2c-1.68.84-3.68.51-5.55.55a100.38,100.38,0,0,0-10.55.44,3.34,3.34,0,0,1-1.83-.77c0-.1-.07-.21-.09-.31s-.11-.39-.15-.58a10,10,0,0,1,.2-5l1.53-2a0,0,0,0,0,0,0c3.25,1.59,4.16-2,6.32-2.89l.13,0a.16.16,0,0,1,.09,0l.18,0C254.82,105.68,257.34,110.3,258.74,116.3Z"/><path class="cls-28" d="M133.17,186.26l-.06.11-.2.18a1.39,1.39,0,0,1-1.41.14c-2.7-.59-5.65.43-8.18-1.29.22-.57,1.34-.76,1.2-.89-4.06-3.58-4.35-8.72-5.48-13.43-.87-3.61,1.65-4.07,4.43-3.88l2.07-1.25a2.66,2.66,0,0,1,1.45.91,2.12,2.12,0,0,1,.11.21c.25.46.48.93.69,1.4,2,4.25,3,8.9,5.25,13A4.66,4.66,0,0,1,133.17,186.26Z"/><path class="cls-39" d="M289.63,124.65,270.28,121a8.78,8.78,0,0,0-4.22-.23l-.92.14h0a12.87,12.87,0,0,1-4.5.21h-15a15.66,15.66,0,0,1-3-.22l-.48-.07s0,0,0,0a21.64,21.64,0,0,0-3.4-.34A7.64,7.64,0,0,0,236,121l-.72.06-2.44.22-2.74-.3c2.71-1.23,5.77-1.36,8.15-3.26.22-.44.46-.67.74-.7s.53.14.84.48l.28,0a73.39,73.39,0,0,1,17.4-.06q.69.09,1.38.21c7.83,1.14,15.67,2.21,23.48,3.46,2.79.44,5.82.8,8.2,2.15S290.08,124.24,289.63,124.65Z"/><path class="cls-40" d="M127.49,162.45c-.14.37-.29.74-.45,1.1a2.25,2.25,0,0,1-.21.24,2.9,2.9,0,0,1-1.32.86h0c-8.51-3.73-8.58-3.75-5.42-13.25.64-1.92.27-4.81,3.44-5.17a4.1,4.1,0,0,1,4.41,1.77,3.65,3.65,0,0,1,.32.45l.07.12a19.5,19.5,0,0,1,.53,2.26c.1.5.2,1,.34,1.49,0,.17,0,.34,0,.5A24.08,24.08,0,0,1,127.49,162.45Z"/><path class="cls-40" d="M141.43,160a6.72,6.72,0,0,1-1.43,2.52,6.56,6.56,0,0,1-3.79,2,14.1,14.1,0,0,1-2.39.26l-.61,0-.18-.08a3.61,3.61,0,0,1-1.38-1s0,0,0,0a15.58,15.58,0,0,1-.64-1.47,12.61,12.61,0,0,1,.29-10l0-.09a3,3,0,0,1,1.17-1l.06,0a3.12,3.12,0,0,1,.39-.15C140.85,150.76,142,152,141.43,160Z"/><path class="cls-32" d="M356.3,224.27a114.65,114.65,0,0,0-9.12,33.29c-3,.23-1.93-2.27-2.45-3.7-.37-4.28,2.58-7.85,2.55-12.06.22-.53.43-1.06.62-1.6,2.37-6.25,3.65-12.83,5.49-19.24C354.91,221.58,355.63,222.9,356.3,224.27Z"/><path class="cls-41" d="M146.28,122.23a86,86,0,0,0-4.11,8.13c-1,2.45-2.32,2.7-4.4,1.75-1.71.29-2.05-1-2.43-2.17-1.81-1.69-1.5-3.13.37-4.62,2.35-1.87,4.5-4,7.37-5.13C144.52,120.29,145.88,120.5,146.28,122.23Z"/><path class="cls-42" d="M210.61,336.82v.05a2.42,2.42,0,0,1-2,2.76c-.24.08-.48.14-.73.21h0l-1,.25a4.63,4.63,0,0,0-1.14.47,56.53,56.53,0,0,1-6.24.06c-.2,0-.4,0-.6,0-1.25-.05-2.49-.14-3.74-.25l-2.1-.2c-5.41-.56-10.8-1.43-16.22-1.85a4.14,4.14,0,0,1-2.25-.74,2.52,2.52,0,0,1-.3-.27,2.7,2.7,0,0,1-.63-1.62l7.45-.25,14.22.27c5,1.13,10.14-.14,15.17.73C210.59,336.56,210.6,336.69,210.61,336.82Z"/><path class="cls-43" d="M139.09,145.56c-.36,3.13-4.05,1.45-6.25,2-.11-.08-.24-.15-.35-.22l-.05,0L132,147c-.11-.37-.2-.74-.28-1.1a12.59,12.59,0,0,1-.26-3.68,10.42,10.42,0,0,1,1.51-4.66,13.61,13.61,0,0,1,2.45-3l.13-.12a1.92,1.92,0,0,1,.41-.05h0a1.65,1.65,0,0,1,.63.07,2,2,0,0,1,.71.38C142,137.72,139.5,142.11,139.09,145.56Z"/><path class="cls-44" d="M134.08,133.92c-.06.21-.13.42-.19.63-.31,1-.6,2-.89,3-.47,1.57-.95,3.13-1.51,4.66-.26.72-.54,1.43-.85,2.13-.06.17-.14.33-.21.5s-.4.39-.61.57a4.49,4.49,0,0,1-1.36.82,1.93,1.93,0,0,1-.34.11h0c-6.51-1.93-6.8-5.3-1-11.18,2.24-.71,1.66-5.94,5.8-3.62a4.25,4.25,0,0,1,1.14,2.2A.59.59,0,0,1,134.08,133.92Z"/><path class="cls-45" d="M202.76,382.52l-.7.14a46.55,46.55,0,0,1-14.76,0l-7.65-.24c-2.89-1.11-6,.12-8.93-.72l-.56-.19a31.23,31.23,0,0,1-11-1.38c8.16-2,16.18.57,24.28.82,5.67.17,11.35,1.4,16.92-.67l.59.54Z"/><path class="cls-46" d="M381.75,325.49a1.36,1.36,0,0,1,0,.2c-.06.34-.13.52-.21.52l-9.87.3c-.28.08-.55.16-.83.22a.31.31,0,0,1-.13,0c-3.58.74-7.31-.46-10.87.63l-3.52.11a1.93,1.93,0,0,0-1.6-.53,2.38,2.38,0,0,1-1.63-.4,1,1,0,0,1-.2-.2l1.16-2.28h0l.72-.66h0c3.55-.62,7.08.49,10.63.13l.22,0h.09c2.95.22,6-.51,8.88.46l1.16.31a3.11,3.11,0,0,0,1.28.15,8.48,8.48,0,0,0,1.11-.16,3.7,3.7,0,0,1,3.22.44,1.46,1.46,0,0,1,.16.21,1.09,1.09,0,0,1,.19.43S381.75,325.45,381.75,325.49Z"/><path class="cls-41" d="M129.46,185.4h-6.14c-3.55-4.36-4.16-9.83-5.62-15-.34-1.85-1.38-3.81.38-5.39.12-.11.24-.2.37-.3,1.21,1.77,3.53,1.29,5,2.48C118,171.51,120.8,181.7,129.46,185.4Z"/><path class="cls-47" d="M389.56,333.91c0,1.13-1.07,1.44-2,1.59a63.38,63.38,0,0,1-7.32,1.09c-4.1.19-4-1.81-2.05-4.52h0a1.22,1.22,0,0,1,.9-.05c2.66.07,5.32.11,8,.23C388.16,332.3,389.52,332.41,389.56,333.91Z"/><path class="cls-48" d="M244.73,105.87c-.09.17-.18.35-.28.52a1.49,1.49,0,0,1-.23.27,2.79,2.79,0,0,1-2.29,1c-4.51-.53-3.91-4.61-4.49-7.31-.51-2.39,2.53-2,4.12-2.64C245.56,99.47,246.64,102.17,244.73,105.87Z"/><path class="cls-49" d="M111,289.62a99.39,99.39,0,0,1,0-27.4A72.77,72.77,0,0,1,111,289.62Z"/><path class="cls-50" d="M147.69,182.44a1.7,1.7,0,0,1,0,.22c-3.27,4.15-7.66,6-12.84,6.13a4.36,4.36,0,0,1-.87-.13,1.8,1.8,0,0,1-.68-1.94c0-.08,0-.16.07-.25a.65.65,0,0,1,0-.13c2.27-3.9,5.92-4.93,9.79-5.47.71-.1,1.43-.19,2.14-.27h0a5.16,5.16,0,0,1,.79.08,1.72,1.72,0,0,1,1.2.51A1.66,1.66,0,0,1,147.69,182.44Z"/><path class="cls-51" d="M116.72,326.35a109.2,109.2,0,0,1-3.66-20.29c.09-1.29.19-2.57.28-3.86l.5,0q1.89,10.21,3.77,20.44A4.7,4.7,0,0,1,116.72,326.35Z"/><path class="cls-52" d="M153.34,173.91a23.56,23.56,0,0,1-4.78,8.84l-.81-.08h-.07l-.19-.24-.63-.81-.73-.93a35.58,35.58,0,0,0,5.06-9.12c1-.41,2.15-.8,2.95.14S153.65,173.18,153.34,173.91Z"/><path class="cls-53" d="M240.45,95.12c-5.46,3.83-7.18-1.52-10-4.1,1.41-1.39,3.4-1.07,5.06-1.73l3.94,2C239.18,92.73,240.9,93.63,240.45,95.12Z"/><path class="cls-54" d="M143.05,162.2c-2.32,2.58-5.53,3.49-8.61,4.68h0a1.13,1.13,0,0,1-.62.06l-.13,0a.59.59,0,0,1-.29-.19h0a1.09,1.09,0,0,1-.22-.25,2.25,2.25,0,0,1-.13-1.73,3.13,3.13,0,0,1,.68-1.09l7.72-3.6c1.11-.14,1.48-2.39,2.42-1.57C145.23,159.66,144.23,161.13,143.05,162.2Z"/><path class="cls-55" d="M128.25,148.46a3.63,3.63,0,0,1-1,.57l-3.7-2.79c-2.57-4.42-1.08-9,3.6-11-2,3.69-6,7.55.92,10.45a4.8,4.8,0,0,1,.42.61A1.55,1.55,0,0,1,128.25,148.46Z"/><path class="cls-45" d="M169.34,294.14c-3.24,1.68-6.21,4.11-10.22,3.57a30,30,0,0,1,7.29-6.84l1.68-1.25C169.06,291,167.11,293.13,169.34,294.14Z"/><path class="cls-56" d="M247.4,107.07c-.3,1.08-.53,2.19-.9,3.26-.49,1.46-1.17,3-2.89,3.14-2.37.23-2.49-1.79-2.94-3.39a0,0,0,0,0,0,0,2.76,2.76,0,0,0,1.25-2.37l1.11-1.26a3.27,3.27,0,0,1,1.69-.57,3.19,3.19,0,0,1,2.4,1.27l.07.08Z"/><path class="cls-57" d="M248.55,104.65a.08.08,0,0,0,0,0c-.12.2-.24.39-.37.57a8.64,8.64,0,0,1-.72.88h0c-.07.32-.14.64-.22,1a.43.43,0,0,1,0,.11l-.2,0-2.78-.52-1.18-.22c1.12-3.17.88-6.11-1.48-8.69.17-.81.34-1.62.5-2.43l.25.09L244.79,98C247.2,99.57,249.51,101.18,248.55,104.65Z"/><path class="cls-51" d="M362.51,184.35c.05.68-1,1.44-1.53,2.17-2.64-1.44-5,.06-7.44.69-2.06.54-4,2.11-6.31.62a60.07,60.07,0,0,1,13-4.33C361.15,183.28,362.43,183.12,362.51,184.35Z"/><path class="cls-58" d="M253.1,104.94c-1.68.73-3.35,1.31-4.94.32a4.16,4.16,0,0,1-.8-.64q-1.28-3.3-2.57-6.6C249.48,98,251.41,101.34,253.1,104.94Z"/><path class="cls-59" d="M302.29,305.8c-1.13,1.72.33,3.91-1,5.59l-6.92-5.56.71,0c5.44.12,5.5-.17,7-7.22.3,2,.45,3.07.6,4.12C302.52,303.76,302.41,304.78,302.29,305.8Z"/><path class="cls-60" d="M361,168.05a25.66,25.66,0,0,1-12.64-12.54A65.28,65.28,0,0,1,361,168.05Z"/><path class="cls-61" d="M222.65,335.75a8.75,8.75,0,0,0-.78.72,9.21,9.21,0,0,1-3.26,1.92h0a7.84,7.84,0,0,1-4.88-.13,14,14,0,0,1-3-1.43h-.09c-5-.76-10.23.42-15.21-1.13Z"/><path class="cls-62" d="M229.65,88.77c-1.51.44-2.74-.32-4-.94a1.61,1.61,0,0,1-.12-.89c.2.1.42.19.63.27C227.35,87.66,228.67,87.85,229.65,88.77Z"/><path class="cls-63" d="M361.69,176.69c-1.71.67-3.47,1.22-5.21,1.83.34-1.82.29-2.05,1.51-2.29,3.19-.65,4.6-2.68,5-5.7C365.79,173.25,365.21,175.3,361.69,176.69Z"/><path class="cls-64" d="M132.92,150.94l-.39.11-.06.06a6.45,6.45,0,0,1-1.21,1,3.38,3.38,0,0,1-2.06.67,4,4,0,0,1-2.09-.79c0-1,.07-2,.11-3a2.7,2.7,0,0,0,.71-1,3.61,3.61,0,0,0,.19-1.64,5.87,5.87,0,0,0-.08-.72c.36-.61.72-1.23,1.07-1.85a2.58,2.58,0,0,1,1.53.57,4.72,4.72,0,0,1,1.11,1.55,15.56,15.56,0,0,0,.78,1.39l.31.21C132.87,148.66,132.89,149.8,132.92,150.94Z"/><path class="cls-65" d="M134,166.68l-.19.26-.27.35c-1.82,2.21-3.75,2.34-5.75,1.18a9.91,9.91,0,0,1-1.81-1.34c-.15-.39-.29-.78-.44-1.18l0-1.29h0c.14-.32.28-.62.42-1a5.6,5.6,0,0,1,1.56-1.25,4.16,4.16,0,0,1,3.48-.26,8.2,8.2,0,0,1,2,1.05,2.49,2.49,0,0,1,.71.4c0,.38.07.77.11,1.15.05.57.11,1.15.16,1.72C134,166.57,134,166.62,134,166.68Z"/><path class="cls-66" d="M363.73,332.27c-.28.26-.55.52-.84.77l0,0a24.77,24.77,0,0,1-3.54,1.4h-.09l-.47.13a19.61,19.61,0,0,1-3.65.66H355c-.56,0-1.11.08-1.67.08h0a18.08,18.08,0,0,1-3.35-.31h0a18.88,18.88,0,0,1-2.69-.67h-.06a24.16,24.16,0,0,1-3.31-1.34l-.07-.08c-.2-.24-.41-.46-.63-.68Z"/><path class="cls-67" d="M358.57,381.34l-12.49,1,.46-.86c.21-.39.41-.78.62-1.16C351,380.66,354.91,379.37,358.57,381.34Z"/><path class="cls-61" d="M258.84,117.7h-1.73l-17.05-.14c6.13-1.87,12.5-.12,18.68-1.25C258.78,116.77,258.81,117.24,258.84,117.7Z"/><path class="cls-68" d="M150.71,117.58l-4.43,4.65-3.2-2,6.92-3.53C150.23,117,150.47,117.27,150.71,117.58Z"/><path class="cls-22" d="M205,383.62c-5.9,0-11.82.49-17.65-.93l4.93-.05,5-.06,4.63-.05h.91c.35,0,.7,0,1,0l.4.39Z"/><path class="cls-21" d="M337.42,382.72l-1,.8-2.93.1q.84-.12,1.68-.3a40.37,40.37,0,0,0-9.06.08c-.74.15-1.48.27-2.23.36l2.56.1c-.49.12-1,.23-1.46.33h-.11a9.9,9.9,0,0,1-2.48.17,6.4,6.4,0,0,1-1.61-.28,6.65,6.65,0,0,1-1.19-.49l.5-.16c4.2-1.33,8.47-1,12.74-.79h0C334.4,382.72,335.91,382.77,337.42,382.72Z"/><path class="cls-69" d="M408.74,336.62v11.63h-.52V336.63Z"/><path class="cls-70" d="M133.77,198.17c-4.36-.31-6.65-2.72-7.07-7Z"/><path class="cls-71" d="M242.31,95.41l-.25-.09-1.61-.2c-.28-1.29-5-1.39-1-3.83C240.22,92.78,244.79,91.62,242.31,95.41Z"/><path class="cls-72" d="M210.68,319.51c0,.3,0,.61,0,.9v.2l-.12.08a3.89,3.89,0,0,1-3.34.39c-.27-.07-.55-.16-.83-.26l-8.44-.37c0-.31,0-.63,0-.94Z"/><path class="cls-73" d="M356.3,327.5l-4.24.22-7.14-.37c0-.32-.05-.65-.07-1h8l.37.12,1.46.48Z"/><path class="cls-22" d="M219.85,320.76c-.24.1-.48.2-.72.28-2.88,1.06-5.84.93-8.8.75-1.57-.08-3.13-.19-4.69-.13.26-.27.5-.55.74-.84l2.35-.12,1.79-.08h.15l3.5-.09a17.48,17.48,0,0,1,2.33-.47h.11l.41,0h.08a4.7,4.7,0,0,1,2,.37A4.17,4.17,0,0,1,219.85,320.76Z"/><path class="cls-22" d="M199.16,321.9c-4.21,2-8.67.71-13,.94l.57-.15C190.8,321.61,195,321.89,199.16,321.9Z"/><path class="cls-64" d="M137.77,132.11c-.18.52-.37,1-.56,1.56a2.91,2.91,0,0,1-.64.53,2.87,2.87,0,0,1-.57.24h0l-.17.05-.37.12a2.36,2.36,0,0,1-1.56-.06,2.59,2.59,0,0,1-1-.81c0-.72.05-1.44.07-2.16a2.45,2.45,0,0,0,2.42-1.64A2.86,2.86,0,0,1,137.77,132.11Z"/><path class="cls-22" d="M371.65,326.51c-.28.08-.55.16-.83.22a.31.31,0,0,1-.13,0c-3.58.87-7.23.69-10.87.63C363.64,325.53,367.69,326.65,371.65,326.51Z"/><path class="cls-74" d="M385.48,323.43c-.18.26-.41.5-.62.75a6.86,6.86,0,0,1-3.31.76,11.49,11.49,0,0,1-3.38-.65l-.9-.31-.28-.11c0-.31,0-.61,0-.92,2.72,0,5.44.08,8.16.15C385.25,323.1,385.48,323.39,385.48,323.43Z"/><path class="cls-75" d="M134,188.66h-7.25l4.78-2,1.1-.37a.67.67,0,0,1,.57-.06.33.33,0,0,1,.19.21.67.67,0,0,1,.11.3C133.64,187.4,133.8,188,134,188.66Z"/><path class="cls-76" d="M385.05,325.2a3.06,3.06,0,0,1-3.3.29l-.26-.11a19.53,19.53,0,0,1-4.83-.66,5.43,5.43,0,0,1-.88-.42l1.21-.43h.3c2.53.1,5,.19,7.57.3A6.8,6.8,0,0,1,385.05,325.2Z"/><path class="cls-22" d="M179.65,382.45c-3,.08-6,.21-8.93-.72l-.56-.19C173.35,381.63,176.62,380.72,179.65,382.45Z"/><path class="cls-77" d="M229.65,88.77c-1.51.44-2.74-.32-4-.94a1.61,1.61,0,0,1-.12-.89c.1-.42.53-.57,1.25-.49C227.9,87,230.33,86,229.65,88.77Z"/><path class="cls-2" d="M211.07,333.07c-2.84.06-5.75.79-8.42-.83a1.76,1.76,0,0,1,.43-.4,1.63,1.63,0,0,1,1.79.11l5.38.31h0a.86.86,0,0,1,.7.44A1,1,0,0,1,211.07,333.07Z"/><path class="cls-22" d="M218.71,333.09a1.78,1.78,0,0,1-.39.42,1.42,1.42,0,0,1-1.58,0,1.91,1.91,0,0,1-.28-.15l-5.39-.33-.37-.37-.44-.44c.71,0,1.42,0,2.13-.08a11.39,11.39,0,0,1,5.88.69A4.51,4.51,0,0,1,218.71,333.09Z"/><path class="cls-66" d="M344.8,328.81c-2.63,1.62-5.53.86-8.34.91l.54-.2A20.74,20.74,0,0,1,344.8,328.81Z"/><path class="cls-61" d="M224.94,334.22c-2.76.06-5.58.73-8.2-.67a1.91,1.91,0,0,1-.28-.15l1.18-.16,1.07-.15,2.71.18,2.65.18h0Z"/><path class="cls-22" d="M204.87,332c-.32,0-.63.09-1,.12l-1.27.17-3.5-.79-1.56-.36c1.1,0,2.22-.11,3.33-.11h0a8.84,8.84,0,0,1,2.06.21A5.8,5.8,0,0,1,204.87,332Z"/><path class="cls-22" d="M193.42,330.87a17.37,17.37,0,0,1-6.5-.67l-.06,0-.62-.25C188.67,329.94,191.18,329.35,193.42,330.87Z"/><path class="cls-37" d="M301.27,311.39c.05-1.92-.24-3.9,1-5.59C302.21,307.71,302.78,309.74,301.27,311.39Z"/><path class="cls-78" d="M385.05,325.2c-.68,2.09-2.35.7-3.53,1,0-.28,0-.55,0-.83h.25Z"/><path class="cls-79" d="M117.7,170.41c-1.26-2-1.48-3.82.38-5.39.12-.11.24-.2.37-.3C117.32,166.5,118,168.52,117.7,170.41Z"/><path class="cls-80" d="M333.34,305.9l-4-3.51C331.57,302.51,333.06,303.52,333.34,305.9Z"/><path class="cls-81" d="M139.93,134.47l-2.59.42a2.81,2.81,0,0,0-.65,0c-.48-.11-.71-.27-.7-.49h0c0-.17.16-.36.46-.58a1.31,1.31,0,0,0,.75-.19C138.12,133.94,139.32,133.22,139.93,134.47Z"/><path class="cls-61" d="M239.78,117.5l-.69.1c-.3,0-.59.07-.89.12,0-1.94-.25-3.94.94-5.68C239.54,113.84,238.67,115.78,239.78,117.5Z"/><path class="cls-82" d="M247.44,106.15h0c0-.51-.05-1-.08-1.52l1.17.07c1.53.07,3.05.16,4.57.25C251.45,106.42,249.37,106,247.44,106.15Z"/><path class="cls-83" d="M226.78,86.45l-.62.76-.51.62a1.61,1.61,0,0,1-.12-.89C225.63,86.52,226.06,86.37,226.78,86.45Z"/><path class="cls-84" d="M287.89,138.29a55.62,55.62,0,0,1,23,7.19c7.88,4.32,15.55,9,21.76,15.63a22,22,0,0,1,3.58,5.1,4.94,4.94,0,0,1-.75,5.87c-1.63,1.78-3.62,1.84-5.78,1.16-3.92-1.24-7.19-3.62-10.27-6.15-9.94-8.16-21.63-12.74-33.59-16.8-3.89-1.32-9.66-1.81-8.78-7S283.88,139,287.89,138.29Z"/><path class="cls-85" d="M186.71,264.55a720.37,720.37,0,0,1,83.61-54c16.34-9.12,33-17.57,50.15-25.1,1.59-.69,4-2.91,5-.78,1.1,2.58-2.39,2.89-4.05,3.65a624.68,624.68,0,0,0-59,30.35c-2.09,4.34-7,4.89-10.39,7.46a69.36,69.36,0,0,1-7.71,4.73c-13.41,9.31-27.45,17.64-41,26.74a60.4,60.4,0,0,1-5.18,3.44L198,261c-2.59,1.57-5,3.41-7.7,4.82C188.73,266.65,187,267.52,186.71,264.55Z"/><path class="cls-86" d="M186.71,264.55c4.86,2.32,7.12-3.67,11.29-3.54-7.37,5.56-14.8,11-22.08,16.72-6.43,5-12.69,10.23-19,15.36-4.24-2.25-1.19-3.87.58-5.34,9-7.43,18-14.77,27-22.15Z"/><path class="cls-84" d="M265.62,145.21c-4.43-.06-8.12-3.36-7.79-7.35.39-4.75,3.81-6.39,8-6.32,4.43.07,7,2.92,7.57,7.1C273.86,142.21,270,145.26,265.62,145.21Z"/><path class="cls-87" d="M243.82,230a162.15,162.15,0,0,1,18.53-11.29l2.15,1.93-18.43,10.58-.5,0h-.5A1.31,1.31,0,0,1,243.82,230Z"/><path class="cls-27" d="M213.68,156.61c-3.29-.15-4.12-2.79-4.78-5.32-.49-1.88.37-3.67,2.54-3.36,2.86.4,4.52,2.64,5.16,5.31C217.09,155.25,215.79,156.36,213.68,156.61Z"/><path class="cls-67" d="M245.56,120.13l15,0c2,1,4.38-.34,6.28,1.13a60.56,60.56,0,0,1-25.22-.09C242.77,120.12,244.34,120.81,245.56,120.13Z"/><path class="cls-88" d="M345.5,178.15c-.5,1.46-1.91,1.76-3.13,2.06-2.68.67-5.1,2.66-8,1.86-.87-.24-.71-1.4-.08-1.86a22.35,22.35,0,0,1,10-3.56C345.06,176.51,345.47,177.26,345.5,178.15Z"/><path class="cls-27" d="M237.89,148.36a2.3,2.3,0,0,1-2.56,2.45c-2.25,0-4.09-.94-4.59-3.27-.38-1.77,1.09-2.23,2.48-2.19C235.34,145.43,237.31,145.94,237.89,148.36Z"/><path class="cls-89" d="M202.53,166.17c-.07,1.55-.13,3.25-2,3.52s-2.83-1-2.93-2.65.62-3.59,2.5-3.88S202.33,164.66,202.53,166.17Z"/><path class="cls-30" d="M285.2,210.5l-17,8.18C270.34,214.73,280.58,209.8,285.2,210.5Z"/><path class="cls-90" d="M186.23,175.14c-.12,1.55-.51,2.6-2,2.63a1.81,1.81,0,0,1-1.84-1.77,2.07,2.07,0,0,1,1.61-2.58C185.49,173.13,185.85,174.38,186.23,175.14Z"/><path class="cls-91" d="M302.39,202.43l-7.85,3.62Q295.41,201.55,302.39,202.43Z"/><path class="cls-27" d="M221,172c-1.37-.2-1.92-.9-1.93-1.94s.32-2,1.42-2.12,1.5.86,1.54,1.86A2.18,2.18,0,0,1,221,172Z"/><path class="cls-92" d="M242.47,133.78c1,.14,1.88.41,1.81,1.59a1.36,1.36,0,0,1-1.56,1.22,2,2,0,0,1-2.07-1.48C240.44,133.78,241.58,133.85,242.47,133.78Z"/><path class="cls-61" d="M245.56,120.13l-3.92,1-2.25,0L236,121C239,119.28,242.33,120.12,245.56,120.13Z"/><path class="cls-61" d="M266.86,121.24l-6.27-1.13c3.25,0,6.59-.86,9.69.91Z"/><path class="cls-93" d="M173.73,335.68A137.94,137.94,0,0,0,206.07,339c1.14-.74,2.05-.62,2.61.72-1.39,3.54-5.51-.09-7.18,2.71l-8.16-.88c-8.26-.93-16.53-1.8-24.78-2.83-1.57-.2-4.26-.18-4.12-2.11.17-2.46,2.68-1.07,4.19-1.1C170.33,335.42,172,335.6,173.73,335.68Z"/><path class="cls-94" d="M135.15,309.6c-1.65-.46-1.47-1.72-.66-2.55,2.56-2.63,4.48-6,8.31-7.16.2-.05,1,.92.91,1.13-1.57,3.56-4.83,5.61-7.49,8.2C136,309.46,135.54,309.47,135.15,309.6Z"/><path class="cls-95" d="M201.5,342.38,199,341l-.08-.94h9.52c3.79-2.72,8.14-1.74,12.22-1.57A905,905,0,0,0,325.22,337c11.75-.86,23.49-2,35.26-2.59,1.76.06,3.6-.23,5.13,1-.05,3.57-3.21,3-5,3.2-17,2.28-34,3.93-51.13,5.1-23.64,1.61-47.26,1.06-70.89.82C226.19,344.45,213.85,343.15,201.5,342.38Z"/><path class="cls-96" d="M400.25,344.71c-1.19,10.38-6.27,19.73-13.84,27.87-1.48,1.58-3.42,2.77-5.58,1.32s-1.83-3.81-.66-5.61a99.12,99.12,0,0,0,13.59-30.62c.36-1.48,1.4-2.91,3.2-2.77s2.47,1.71,2.73,3.23C400,340,400,341.91,400.25,344.71Z"/><path class="cls-97" d="M365.61,335.45l-4.78,0c-7-.86-13.87,1-20.83.64-2.09-.1-4.8.85-5.23-2.63l9.13-.44,19,0,8.45.4Z"/><path class="cls-98" d="M243.82,230l1.25,1.19c-.82,2.3-2.66,3.52-4.65,4.74q-19.09,11.7-38.08,23.57c-.42.26-.56.95-.83,1.45l-3.44.13c1.14-2.39,3.45-3.54,5.46-4.93C216.69,247,229.75,237.73,243.82,230Z"/><path class="cls-99" d="M334.77,333.5c5.86,1.93,11.9.48,17.83.92,2.77.2,5.66-.61,8.23,1.07-25.33,3.57-50.79,5.11-76.35,6.2s-50.69-1.1-76-1.6L206.07,339l4.63-2.11,11.17-.37c22.45,0,44.88.7,67.35-.58C304.4,335,319.61,334.82,334.77,333.5Z"/><path class="cls-100" d="M338,324.1c0-.38,0-.76,0-1.13,3.15-1.8,6.52,0,9.74-.59,2,0,3.94-.1,5.91.12a1,1,0,0,1,.39,1.6H338Z"/><path class="cls-31" d="M335.49,276.76c-1.34,3.94-1.7,8.18-3.68,11.95-1.43,2.72-3.42,4.1-6.47,3.22a25.11,25.11,0,0,1-14.24-9.86c-1.35-1.95-2.19-4.16-.51-6.35s4.35-4.2,6.85-2.89c4,2.09,5.41.91,6.7-2.87.55-1.61,2.51-2.74,3.83-4.09,4.63-2.78,5.83,1.08,7.57,3.89C335.5,272.09,337.32,274.44,335.49,276.76Z"/><path class="cls-101" d="M332.27,263.36l7.33-9.69c.09,5-.35,9.71-3.85,13.46C333.18,267.17,331.85,266.08,332.27,263.36Z"/><path class="cls-102" d="M332.27,263.36l3.48,3.77c.35,1,.71,2.06,1.07,3.08a1.35,1.35,0,0,1-2.1,0c-1.34-2.86-3.46-4.51-6.75-4.35C328.57,263.59,330.3,263.28,332.27,263.36Z"/><path class="cls-103" d="M334.72,270.22h2.1c0,2.62.52,5.47-.35,7.78-.48,1.3-.43-.92-1-1.23C335.23,274.58,335,272.4,334.72,270.22Z"/><path class="cls-104" d="M386.71,235.25c.1,4.26-7,10.25-11.6,9.58-2.26-.33-3-1.67-2.16-3.62a8,8,0,0,1,2.37-3.14c4.35-3.32,4.69-6.92,1.49-11.28-1.25-1.69-3.47-4.14-.82-5.91s4.56.76,6.13,2.66C384.87,226.87,386.12,230.84,386.71,235.25Z"/><path class="cls-105" d="M162.62,197c-6.4,7.72-13.85,9.56-21.87,5.41,4.88-1,10,1,14.87-1.51C158,199.72,159.23,196.35,162.62,197Z"/><path class="cls-106" d="M164.54,182c1.93,3.76,1.64,7.53.07,11.31A15.91,15.91,0,0,1,164.54,182Z"/><path class="cls-2" d="M278,318.58c8.16.07,16.38-1.25,24.48.8-1.84,1.25-3.76.77-5.68.26l-18-.27A.88.88,0,0,1,278,318.58Z"/><path class="cls-22" d="M278,318.58l.84.79-22.64-.06a.78.78,0,0,1,.76-.81Z"/><path class="cls-2" d="M256.91,318.5l-.76.81-11.12.32c-2.3.61-4.6.95-6.83-.24C244.35,317.3,250.67,318.71,256.91,318.5Z"/><path class="cls-22" d="M238.2,319.39l6.83.24c-5.77,2-11.69.74-17.55.82a.84.84,0,0,1,.81-.79Z"/><path class="cls-22" d="M296.75,319.64l5.68-.26,7.63.27a.87.87,0,0,1,.81.79C306.15,320.39,301.36,321.61,296.75,319.64Z"/><path class="cls-2" d="M228.29,319.66c-.26.27-.53.53-.81.8l-7.63.31-5.67-.25C218.78,318.56,223.58,319.81,228.29,319.66Z"/><path class="cls-2" d="M310.87,320.44l-.81-.79c4.35.14,8.79-1,13,.89-1.45,1.14-3,.8-4.53.24Z"/><path class="cls-22" d="M318.54,320.78l4.53-.24,6.49.26a.84.84,0,0,1,.8.79C326.4,321.58,322.37,322.66,318.54,320.78Z"/><path class="cls-22" d="M348.59,322.79,338,323l-1.16-1.07c1.46-1.09,3-.78,4.53-.22l6.51.28A.66.66,0,0,1,348.59,322.79Z"/><path class="cls-2" d="M341.36,321.68l-4.53.22-6.47-.31-.79-.79C333.51,320.91,337.55,319.8,341.36,321.68Z"/><path class="cls-2" d="M326.47,383.86c-.49.12-1,.23-1.46.33h-.11a9.9,9.9,0,0,1-2.48.17,6.4,6.4,0,0,1-1.61-.28c-7.06.52-14.19-.28-21.22.68,6.62-1.38,13.38-.29,20-1.17l4.23.16h.06Z"/><path class="cls-22" d="M354,324.1c0-.35,0-.69,0-1,1.46-1.11,3-.79,4.55-.23l6.46.28a.7.7,0,0,1,.77.83Z"/><path class="cls-2" d="M358.57,322.83l-4.55.23-5.43-.27c-.23-.29-.47-.56-.72-.83C351.46,322,355.13,321,358.57,322.83Z"/><path class="cls-2" d="M365.8,323.94l-.77-.83c3.22,0,6.53-.88,9.59.88Z"/><path class="cls-31" d="M133.47,186.78a1.82,1.82,0,0,1-.87-.45c-3-6.14-6.85-12-6.62-19.19l8-.46.43.21c1.32,6.41,7,9.33,10.9,13.72C142.45,184.72,137.66,185.18,133.47,186.78Z"/><path class="cls-107" d="M133,163.24c-2.29,1-4.68.73-7.07.47A33.09,33.09,0,0,1,127.11,152c1.51-2,3.51-1.19,5.42-1Q132.77,157.15,133,163.24Z"/><path class="cls-107" d="M136.47,133.86a4.41,4.41,0,0,1,.22,1.08c-2.4,3.78-3,8.17-4.16,12.37a4.72,4.72,0,0,1-3.41-3.51,20.37,20.37,0,0,1,3.73-10.06Z"/></g></g></svg>